<svg id="a" xmlns="http://www.w3.org/2000/svg" viewBox="0 0 274.72 39.83"><defs><style>.b{fill:#fff;}.c{fill:#112711;}</style></defs><rect class="c" width="274.72" height="39.83" rx="11.43" ry="11.43"/><g><path class="b" d="M42.6,29.25v4.87c.04,.19,.11,.35,.24,.46,.12,.11,.27,.18,.45,.2h4.4c.16,0,.31-.06,.47-.18,.12-.16,.18-.32,.18-.47v-4.87h-5.74Z"/><path class="b" d="M153.59,5.05h-3.11c-.22,0-.36,.1-.48,.37l-.86,1.92h2.89l1.72-1.66c.3-.29,.22-.63-.16-.63Z"/><g><path class="b" d="M24.28,9.47c.13,.14,.2,.31,.2,.5v3.04c0,.17-.07,.32-.2,.45-.13,.13-.29,.22-.48,.26h-2.84c-.15,0-.27,.04-.34,.11-.09,.13-.14,.25-.14,.34v3.8c0,.1,.05,.21,.14,.34,.08,.08,.19,.11,.34,.11h1.87c.17,0,.33,.08,.48,.23,.13,.13,.2,.29,.2,.48v3.86c0,.21-.07,.38-.2,.53-.13,.14-.29,.21-.48,.21h-1.87c-.15,0-.27,.04-.34,.11-.09,.09-.14,.21-.14,.34v6.27c-.02,.19-.09,.35-.21,.47s-.28,.2-.47,.24h-4.8c-.19,0-.35-.07-.48-.21-.13-.14-.2-.31-.2-.5V9.97c0-.19,.07-.36,.2-.5,.13-.14,.29-.21,.48-.21h8.8c.19,0,.35,.07,.48,.21Z"/><path class="b" d="M35.79,9.48c.16,.15,.26,.34,.3,.57l2.7,20.5v.11c0,.11-.03,.22-.09,.31-.13,.13-.27,.2-.43,.2h-4.74c-.19,0-.35-.06-.47-.18-.12-.12-.2-.27-.24-.44l-.28-3.12c0-.13-.05-.25-.14-.34-.08-.08-.19-.11-.34-.11h-1.19c-.13,0-.25,.04-.34,.11-.09,.09-.14,.21-.14,.34l-.28,3.12c-.02,.17-.1,.32-.24,.44-.14,.12-.3,.18-.47,.18h-4.77c-.17,0-.3-.07-.4-.2-.11-.13-.15-.27-.11-.43l2.73-20.5c.02-.23,.12-.42,.3-.57,.18-.15,.38-.23,.61-.23h7.47c.23,0,.42,.08,.58,.23Zm-3.51,13.06c.08-.08,.09-.17,.06-.28l-.48-7.58c-.02-.25-.14-.37-.37-.37-.1,0-.18,.03-.24,.09-.07,.06-.1,.14-.1,.25l-.6,7.61v.08c0,.09,.02,.17,.06,.23s.08,.08,.11,.08h1.33c.09,0,.17-.04,.23-.11Z"/><path class="b" d="M49.74,9.37c.55,.23,1.03,.56,1.45,.99,.42,.42,.74,.9,.97,1.45,.23,.55,.33,1.13,.31,1.73v5.05c0,.17-.06,.31-.17,.43-.15,.15-.32,.23-.51,.23h-4.12c-.23,0-.4-.07-.51-.2-.15-.15-.21-.32-.17-.51v-4.2c0-.15-.03-.29-.1-.43-.07-.13-.17-.24-.3-.31-.15-.09-.3-.14-.45-.14s-.3,.05-.45,.14c-.13,.08-.24,.19-.31,.34s-.1,.31-.09,.48v11.64c0,.28,.08,.5,.23,.64,.15,.14,.33,.21,.54,.21,.25,0,.46-.08,.65-.23,.19-.15,.28-.36,.28-.62v-4.63c0-.15,.07-.29,.2-.43,.11-.13,.27-.2,.48-.2h4.12c.19,.02,.35,.09,.48,.21,.13,.12,.2,.28,.2,.47v5.37c.02,.61-.09,1.18-.31,1.73s-.55,1.03-.97,1.45c-.42,.44-.9,.77-1.45,.99-.55,.23-1.12,.34-1.7,.34h-4.43c-.78-.04-1.49-.27-2.13-.7s-1.15-.97-1.5-1.65c-.36-.67-.53-1.4-.51-2.17V13.54c-.02-.78,.15-1.5,.51-2.17,.36-.67,.86-1.22,1.5-1.65s1.35-.66,2.13-.7h4.43c.59,0,1.15,.11,1.7,.34Z"/><path class="b" d="M64.66,9.48c.16,.15,.26,.34,.3,.57l2.7,20.5v.11c0,.11-.03,.22-.09,.31-.13,.13-.27,.2-.43,.2h-4.74c-.19,0-.35-.06-.47-.18-.12-.12-.2-.27-.24-.44l-.28-3.12c0-.13-.05-.25-.14-.34-.08-.08-.19-.11-.34-.11h-1.19c-.13,0-.25,.04-.34,.11-.09,.09-.14,.21-.14,.34l-.28,3.12c-.02,.17-.1,.32-.24,.44-.14,.12-.3,.18-.47,.18h-4.77c-.17,0-.3-.07-.4-.2-.11-.13-.15-.27-.11-.43l2.73-20.5c.02-.23,.12-.42,.3-.57,.18-.15,.38-.23,.61-.23h7.47c.23,0,.42,.08,.58,.23Zm-3.51,13.06c.08-.08,.09-.17,.06-.28l-.48-7.58c-.02-.25-.14-.37-.37-.37-.1,0-.18,.03-.24,.09-.07,.06-.1,.14-.1,.25l-.6,7.61v.08c0,.09,.02,.17,.06,.23s.08,.08,.11,.08h1.33c.09,0,.17-.04,.23-.11Z"/><path class="b" d="M83.64,9.63c.68,.42,1.22,.97,1.62,1.66,.4,.69,.6,1.44,.6,2.26v13.34c0,.61-.11,1.19-.33,1.75-.22,.56-.54,1.05-.95,1.46-.4,.44-.88,.77-1.43,1.01s-1.14,.36-1.75,.38h-4.17c-.81-.02-1.56-.24-2.24-.65s-1.22-.97-1.6-1.67c-.39-.7-.58-1.46-.58-2.27V13.54c0-.81,.2-1.57,.6-2.26,.4-.69,.93-1.24,1.6-1.66,.67-.42,1.41-.63,2.23-.65h4.17c.81,.02,1.56,.24,2.24,.65Zm-3.69,3.88c-.17-.16-.38-.24-.62-.24-.23,.02-.42,.11-.58,.27s-.24,.35-.24,.58v11.81c0,.23,.09,.42,.26,.57,.17,.15,.38,.23,.62,.23,.23,0,.42-.08,.58-.24,.16-.16,.25-.34,.27-.55V14.11c-.02-.25-.11-.45-.28-.61Z"/><path class="b" d="M101.55,19.65c.76,.44,1.38,1.01,1.87,1.73,.49,.72,.74,1.63,.74,2.73,0,.62,0,1.06,.01,1.31,0,.25,.01,.42,.01,.51v.82c-.02,.78-.19,1.52-.52,2.23-.33,.71-.82,1.29-1.48,1.73-.65,.45-1.43,.67-2.34,.67h-3.35c-.89,0-1.72-.22-2.48-.65s-1.38-1.02-1.85-1.76c-.46-.74-.71-1.55-.75-2.44v-3.01c0-.3,.09-.55,.26-.74,.17-.19,.37-.28,.6-.28,.13,0,.26,.03,.37,.08l3.55,1.62c.42,.23,.67,.45,.77,.67,.09,.22,.14,.45,.14,.7l.03,1.05c.02,.21,.1,.38,.26,.51,.15,.13,.32,.2,.51,.2,.21,0,.38-.06,.53-.18s.21-.29,.21-.5l-.03-1.42c0-.55-.23-.99-.68-1.33-.45-.34-1.22-.74-2.3-1.19-1.25-.51-2.28-1.11-3.09-1.8-.81-.69-1.22-1.65-1.22-2.88v-4.06c0-.85,.17-1.65,.52-2.38,.35-.74,.88-1.34,1.59-1.8,.71-.46,1.58-.7,2.63-.7h2.9c.89,0,1.72,.21,2.48,.64,.77,.43,1.38,1.01,1.85,1.76,.46,.75,.7,1.58,.72,2.48l-.06,4.2c0,.3-.07,.53-.21,.68s-.31,.23-.5,.23c-.1,0-.18-.02-.26-.06l-3.95-1.87c-.21-.08-.37-.2-.48-.38-.11-.18-.16-.37-.14-.58v-2.7c0-.21-.08-.39-.24-.54-.16-.15-.35-.23-.55-.23s-.39,.08-.54,.24c-.15,.16-.23,.35-.23,.55v1.9l-.03,.91c0,.45,.1,.81,.3,1.06,.2,.26,.65,.53,1.35,.81,1.31,.55,2.34,1.04,3.09,1.48Z"/><path class="b" d="M115.8,9.43c.13,.13,.2,.28,.2,.45v3.38c0,.21-.07,.37-.2,.48-.11,.13-.27,.2-.48,.2h-3.18c-.15,0-.27,.04-.34,.11-.09,.09-.14,.21-.14,.34v3.55c0,.1,.05,.21,.14,.34,.08,.08,.19,.11,.34,.11h2.16c.17,0,.33,.08,.48,.23,.13,.13,.2,.3,.2,.51v3.58c0,.21-.07,.38-.2,.51-.15,.15-.31,.23-.48,.23h-2.16c-.15,0-.27,.04-.34,.11-.09,.09-.14,.21-.14,.34v2.07c0,.13,.05,.25,.14,.34,.08,.08,.19,.11,.34,.11h3.18c.21,0,.37,.07,.48,.2,.13,.13,.2,.3,.2,.51v3.29c0,.23-.07,.4-.2,.51-.11,.15-.27,.23-.48,.23h-9.08c-.19,0-.36-.08-.51-.23-.13-.13-.2-.3-.2-.51V9.88c0-.19,.08-.34,.23-.45,.15-.11,.31-.17,.48-.17h9.08c.17,0,.33,.06,.48,.17Z"/><path class="b" d="M129.8,9.47c.13,.12,.21,.27,.23,.44V26.83c0,.81-.2,1.57-.6,2.26-.4,.69-.94,1.24-1.62,1.65-.68,.41-1.43,.61-2.24,.61h-4.09c-.59,.02-1.15-.08-1.7-.31-.55-.23-1.04-.56-1.48-.99-.44-.43-.76-.93-.98-1.49-.22-.56-.32-1.13-.3-1.72V9.91c0-.19,.08-.34,.23-.46,.11-.13,.27-.2,.48-.2h4.26c.19,.02,.35,.09,.48,.21,.13,.12,.21,.27,.23,.44V26.06c0,.25,.08,.45,.26,.6,.17,.17,.39,.25,.65,.25,.25,0,.45-.08,.62-.24,.17-.16,.27-.36,.28-.61V9.91c0-.17,.08-.33,.23-.48,.13-.11,.3-.17,.51-.17h4.06c.19,.02,.35,.09,.48,.21Z"/><path class="b" d="M146.13,9.5c.14,.14,.2,.32,.18,.53v3.41c0,.15-.06,.3-.17,.45-.15,.15-.33,.23-.54,.23h-1.82V30.46c0,.17-.07,.34-.2,.51-.17,.13-.34,.2-.51,.2h-4.74c-.19-.02-.35-.09-.48-.21s-.22-.29-.26-.5V14.11h-1.87c-.21-.04-.37-.13-.5-.27-.12-.14-.18-.31-.18-.5v-3.32c0-.19,.07-.36,.2-.5s.29-.23,.48-.27h9.88c.21,.02,.38,.1,.53,.24Z"/><path class="b" d="M153.13,9.48c.13,.13,.21,.29,.23,.48V30.46c-.02,.19-.09,.35-.23,.48-.13,.13-.29,.21-.48,.23h-4.77c-.19-.02-.35-.09-.47-.23-.12-.13-.19-.29-.21-.48V9.97c.02-.19,.09-.35,.21-.48,.12-.13,.28-.21,.47-.23h4.77c.19,.02,.35,.09,.48,.23Z"/><path class="b" d="M165.35,9.5c.14,.14,.2,.32,.18,.53v3.41c0,.15-.06,.3-.17,.45-.15,.15-.33,.23-.54,.23h-1.82V30.46c0,.17-.07,.34-.2,.51-.17,.13-.34,.2-.51,.2h-4.74c-.19-.02-.35-.09-.48-.21s-.22-.29-.26-.5V14.11h-1.87c-.21-.04-.37-.13-.5-.27-.12-.14-.18-.31-.18-.5v-3.32c0-.19,.07-.36,.2-.5s.29-.23,.48-.27h9.88c.21,.02,.38,.1,.53,.24Z"/><path class="b" d="M179.11,9.47c.13,.12,.21,.27,.23,.44V26.83c0,.81-.2,1.57-.6,2.26-.4,.69-.94,1.24-1.62,1.65-.68,.41-1.43,.61-2.24,.61h-4.09c-.59,.02-1.15-.08-1.7-.31-.55-.23-1.04-.56-1.48-.99-.44-.43-.76-.93-.98-1.49-.22-.56-.32-1.13-.3-1.72V9.91c0-.19,.08-.34,.23-.46,.11-.13,.27-.2,.48-.2h4.26c.19,.02,.35,.09,.48,.21,.13,.12,.21,.27,.23,.44V26.06c0,.25,.08,.45,.26,.6,.17,.17,.39,.25,.65,.25,.25,0,.45-.08,.62-.24,.17-.16,.27-.36,.28-.61V9.91c0-.17,.08-.33,.23-.48,.13-.11,.3-.17,.51-.17h4.06c.19,.02,.35,.09,.48,.21Z"/><path class="b" d="M190.92,26.26c.13,.13,.2,.29,.2,.48v3.72c0,.21-.07,.38-.2,.51-.13,.13-.29,.2-.48,.2h-8.83c-.19-.02-.35-.09-.47-.23-.12-.13-.19-.29-.21-.48V9.97c.02-.19,.09-.35,.21-.48,.12-.13,.28-.21,.47-.23h4.8c.19,0,.35,.07,.48,.2,.13,.13,.2,.3,.2,.51V26.06h3.35c.21,0,.37,.07,.48,.2Z"/><path class="b" d="M202.9,9.63c.68,.42,1.22,.97,1.62,1.66,.4,.69,.6,1.44,.6,2.26v13.34c0,.61-.11,1.19-.33,1.75-.22,.56-.54,1.05-.95,1.46-.4,.44-.88,.77-1.43,1.01s-1.14,.36-1.75,.38h-4.17c-.81-.02-1.56-.24-2.24-.65s-1.22-.97-1.6-1.67c-.39-.7-.58-1.46-.58-2.27V13.54c0-.81,.2-1.57,.6-2.26,.4-.69,.93-1.24,1.6-1.66,.67-.42,1.41-.63,2.23-.65h4.17c.81,.02,1.56,.24,2.24,.65Zm-3.69,3.88c-.17-.16-.38-.24-.62-.24-.23,.02-.42,.11-.58,.27s-.24,.35-.24,.58v11.81c0,.23,.09,.42,.26,.57,.17,.15,.38,.23,.62,.23,.23,0,.42-.08,.58-.24,.16-.16,.25-.34,.27-.55V14.11c-.02-.25-.11-.45-.28-.61Z"/><path class="b" d="M221.96,9.48c.16,.15,.26,.34,.3,.57l2.7,20.5v.11c0,.11-.03,.22-.09,.31-.13,.13-.27,.2-.43,.2h-4.74c-.19,0-.35-.06-.47-.18-.12-.12-.2-.27-.24-.44l-.28-3.12c0-.13-.05-.25-.14-.34-.08-.08-.19-.11-.34-.11h-1.19c-.13,0-.25,.04-.34,.11-.09,.09-.14,.21-.14,.34l-.28,3.12c-.02,.17-.1,.32-.24,.44-.14,.12-.3,.18-.47,.18h-4.77c-.17,0-.3-.07-.4-.2-.11-.13-.15-.27-.11-.43l2.73-20.5c.02-.23,.12-.42,.3-.57,.18-.15,.38-.23,.61-.23h7.47c.23,0,.42,.08,.58,.23Zm-3.51,13.06c.08-.08,.09-.17,.06-.28l-.48-7.58c-.02-.25-.14-.37-.37-.37-.1,0-.18,.03-.24,.09-.07,.06-.1,.14-.1,.25l-.6,7.61v.08c0,.09,.02,.17,.06,.23s.08,.08,.11,.08h1.33c.09,0,.17-.04,.23-.11Z"/><path class="b" d="M238.55,31.57c0,.26-.11,.46-.33,.58-.22,.12-.43,.18-.64,.18h-3.72c-.19,0-.39-.07-.6-.2-.21-.13-.32-.28-.34-.45l-.03-.51h-3.04c-.59-.02-1.15-.14-1.67-.37-.53-.23-.99-.55-1.39-.96s-.7-.9-.91-1.45c-.21-.55-.3-1.12-.28-1.7V13.52c-.02-.59,.08-1.14,.28-1.67,.21-.53,.51-1.01,.91-1.45s.86-.77,1.39-.99c.53-.23,1.09-.34,1.67-.34h3.92c.78,.02,1.49,.23,2.16,.64,.66,.41,1.18,.95,1.56,1.62,.38,.67,.56,1.41,.54,2.2v13.17c-.04,.62-.19,1.18-.45,1.67l.91,2.87c.04,.15,.06,.26,.06,.34Zm-6.06-18.06c-.18-.15-.38-.24-.61-.25-.25,.02-.45,.11-.61,.27-.16,.16-.24,.35-.24,.58v11.5c0,.25,.08,.44,.26,.58,.17,.14,.39,.21,.65,.21,.21,0,.39-.08,.55-.24,.16-.16,.26-.34,.3-.55V14.11c-.02-.25-.12-.44-.3-.6Z"/><path class="b" d="M252.43,9.47c.13,.12,.21,.27,.23,.44V26.83c0,.81-.2,1.57-.6,2.26-.4,.69-.94,1.24-1.62,1.65-.68,.41-1.43,.61-2.24,.61h-4.09c-.59,.02-1.15-.08-1.7-.31-.55-.23-1.04-.56-1.48-.99-.44-.43-.76-.93-.98-1.49-.22-.56-.32-1.13-.3-1.72V9.91c0-.19,.08-.34,.23-.46,.11-.13,.27-.2,.48-.2h4.26c.19,.02,.35,.09,.48,.21,.13,.12,.21,.27,.23,.44V26.06c0,.25,.08,.45,.26,.6,.17,.17,.39,.25,.65,.25,.25,0,.45-.08,.62-.24,.17-.16,.27-.36,.28-.61V9.91c0-.17,.08-.33,.23-.48,.13-.11,.3-.17,.51-.17h4.06c.19,.02,.35,.09,.48,.21Z"/><path class="b" d="M260.18,9.48c.13,.13,.21,.29,.23,.48V30.46c-.02,.19-.09,.35-.23,.48-.13,.13-.29,.21-.48,.23h-4.77c-.19-.02-.35-.09-.47-.23-.12-.13-.19-.29-.21-.48V9.97c.02-.19,.09-.35,.21-.48,.12-.13,.28-.21,.47-.23h4.77c.19,.02,.35,.09,.48,.23Z"/></g></g></svg>