<?xml version="1.0" encoding="UTF-8"?><svg id="a" xmlns="http://www.w3.org/2000/svg" viewBox="0 0 61.42 61.44"><defs><style>.b{fill:#fff;}</style></defs><path class="b" d="M.91,23.91c.26,.77,.5,1.43,.7,2.11,.11,.39,.31,.53,.71,.51,.99-.06,1.99,0,2.97-.11,.44-.05,.7,.08,.87,.53,.36,1,.38,1,1.45,.91,1.37-.12,2.74-.27,4.1-.42,.44-.05,.75,.06,1.05,.41,.8,.92,1.64,1.8,2.46,2.71,.2,.22,.41,.34,.72,.36,1.98,.16,3.95,.34,5.93,.5,.67,.06,.71,.1,.64,.76-.08,.81-.13,1.63-.22,2.44-.03,.31,.13,.35,.36,.36,.73,.03,1.46,.07,2.19,.1,.84,.03,.85,.03,.83,.85-.04,2.52-.08,5.05-.12,7.57-.01,.71,0,.71,.72,.78,.68,.07,1.35,.16,2.02,.22,.32,.03,.54,.17,.7,.46,.34,.65,.67,1.3,1.08,1.91,.56,.83,.81,1.72,.73,2.71-.06,.73,.12,1.34,.78,1.74,.27,.16,.29,.42,.29,.72,.02,.87-.28,1.51-.99,2.04-.83,.63-1.58,1.37-2.37,2.05-.28,.24-.34,.41-.07,.72,.74,.85,1.43,1.76,2.19,2.6,.49,.53,.38,1.12,.35,1.72-.02,.32-.31,.28-.53,.28-1.43,0-2.85-.12-4.27-.34-5.83-.88-11.01-3.21-15.47-7.07C5.14,49.19,1.7,43.11,.44,35.81c-.65-3.75-.57-7.49,.19-11.21,.04-.2,.06-.41,.28-.69Z"/><path class="b" d="M57.25,19.86c-.84,.18-1.72-.18-2.6-.72-1.51-.93-3.1-1.73-4.61-2.67-1.06-.65-2.22-1-3.37-1.38-1.7-.57-3.41-1.12-5.11-1.7-.38-.13-.71-.13-1.02,.14-.04,.03-.1,.05-.13,.08-1.01,1.02-2.13,.92-3.32,.35-.34-.16-.45-.31-.34-.66,.29-.99,.54-1.98,.83-2.97,.07-.25,.05-.47-.07-.7-.83-1.59-1.66-3.18-2.48-4.77-.15-.29-.24-.32-.46-.06-.69,.81-1.43,1.57-2.08,2.41-.44,.57-.96,.79-1.64,.81-1.22,.04-2.43,.14-3.64,.3-.33,.04-.57,.13-.64,.48-.06,.28-.24,.4-.52,.41-.53,.02-1.07,.2-1.59-.08-.61-.33-1-.76-1.03-1.54-.04-.97-.26-1.93-.39-2.9-.09-.66-.55-1.11-.9-1.63-.14-.21-.32-.03-.45,.06-.72,.43-1.45,.84-2.15,1.3-.46,.3-.94,.43-1.47,.46-.66,.04-1.32,.1-1.98,.11-.39,0-.52,.15-.57,.55-.12,1.05,.18,1.91,.96,2.62,.38,.33,.31,.57-.11,.83-.68,.42-1.34,.88-1.98,1.36-.33,.25-.59,.24-.84-.08-.05-.07-.13-.11-.19-.18-.85-.95-1.87-1.53-3.19-1.46-.15,0-.39,.02-.45-.17-.05-.16,.15-.26,.26-.36C14.79,3.72,20.43,1.05,26.93,.25c6.09-.75,11.92,.22,17.41,2.95,5.73,2.85,10.14,7.12,13.26,12.71,.59,1.07,1.11,2.17,1.57,3.3,.21,.51,.14,.63-.41,.64-.44,.01-.87,0-1.51,0Z"/><path class="b" d="M33.42,61.27c.08-.39,.36-.54,.58-.76,1.57-1.53,3.15-3.06,4.73-4.57,.29-.28,.41-.57,.39-.97-.05-1.44-.07-2.89-.12-4.33-.02-.45,.12-.69,.55-.87,3.08-1.31,6.14-2.65,9.22-3.95,.65-.28,1.14-.65,1.5-1.27,.74-1.26,1.5-2.51,2.35-3.7,.56-.79,.66-1.6,.59-2.51-.12-1.75-.21-3.51-.29-5.26-.03-.64,.38-1.24,1.02-1.38,.73-.15,1.22-.55,1.64-1.16,.97-1.42,1.96-2.84,3.05-4.18,.71-.87,.93-1.82,.98-2.88,.03-.69,.07-1.38,.3-2.04,2.64,8.68,1.89,17.04-2.78,24.85-5.34,8.96-13.39,13.83-23.71,14.98Z"/><path class="b" d="M25.11,23.85c0-1.81,.01-3.62,0-5.43,0-.44,.12-.62,.59-.61,1.6,.02,3.2-.01,4.81,.02,2.22,.05,3.55,1.5,3.45,3.71-.03,.73-.35,1.34-.88,1.84-.22,.21-.28,.33-.01,.57,1.89,1.72,1.25,4.83-1.17,5.68-.41,.14-.84,.24-1.28,.25-1.67,.02-3.34,0-5.01,.02-.45,0-.53-.24-.5-.6,0-.02,0-.03,0-.05,0-1.79,0-3.59,0-5.38Zm4.3,1.31h0c-.23,0-.45,.01-.68,0-.44-.04-.59,.17-.56,.58,.02,.33,0,.66,0,.99,0,.25,.11,.39,.37,.39,.54,0,1.08,.02,1.61-.01,.59-.03,.92-.41,.91-.99,0-.6-.31-.91-.93-.95-.24-.01-.49,0-.73,0Zm-.05-4.59h0c-.28,0-.55,0-.83,0-.36,0-.39,.27-.34,.51,.09,.43-.29,.97,.28,1.3,.01,0,.03,0,.05,0,.54,0,1.08,.06,1.61-.04,.58-.11,.8-.4,.76-.98-.03-.51-.32-.77-.9-.8-.21-.01-.42,0-.62,0Z"/><path class="b" d="M34.83,23.85c0-1.81,.01-3.62,0-5.43,0-.44,.12-.62,.59-.61,2.35,.02,4.7,.02,7.05,0,.42,0,.6,.13,.58,.57-.03,.54-.03,1.08,0,1.62,.02,.44-.16,.58-.58,.57-1.31-.01-2.61,.01-3.92-.01-.5,0-.68,.15-.67,.66,.04,1.41-.13,1.19,1.19,1.2,.85,.01,1.71,.03,2.56,0,.54-.02,.71,.18,.67,.7-.03,.49-.03,.98,0,1.46,.02,.45-.14,.62-.6,.61-1.06-.02-2.13,.01-3.19-.01-.48-.01-.65,.15-.63,.63,.04,1.58-.19,1.31,1.33,1.33,1.1,.01,2.19,.01,3.29,0,.41,0,.56,.15,.55,.55-.02,.57-.02,1.15,0,1.72,0,.33-.12,.48-.46,.48-2.44,0-4.88,0-7.32,0-.44,0-.45-.28-.45-.6,0-1.81,0-3.62,0-5.43Z"/><path class="b" d="M24.12,22.16c0,1.13-.03,2.26,0,3.39,.07,2.52-2.03,4.63-4.98,4.38-2.28-.19-3.74-1.5-4.12-3.5-.04-.22-.06-.45-.06-.67,0-2.44,0-4.88-.01-7.31,0-.5,.16-.68,.66-.65,.59,.03,1.19,.04,1.77,0,.52-.03,.65,.19,.65,.67-.02,2.25,0,4.49,0,6.74,0,.24,0,.49,.02,.73,.09,.77,.68,1.28,1.46,1.28,.82,0,1.43-.51,1.51-1.29,.04-.34,.02-.7,.03-1.04,0-2.14,.01-4.28,0-6.42,0-.49,.14-.7,.65-.66,.62,.04,1.25,.03,1.88,0,.41-.01,.55,.14,.55,.55-.02,1.27,0,2.54,0,3.81Z"/><path class="b" d="M48.34,17.7c1.44,0,2.65,.28,3.7,1.11,.32,.25,.38,.44,.05,.73-.43,.38-.83,.8-1.22,1.22-.23,.24-.4,.28-.7,.08-.75-.49-1.6-.57-2.46-.36-.53,.12-.83,.5-.81,.95,.02,.54,.4,.74,.86,.83,.74,.13,1.48,.21,2.21,.36,1.37,.29,2.28,1.09,2.54,2.5,.28,1.53,0,2.89-1.32,3.87-1.13,.85-2.45,1.05-3.82,.97-1.31-.07-2.55-.35-3.6-1.2-.38-.31-.41-.53-.04-.86,.43-.38,.83-.8,1.22-1.22,.22-.24,.39-.24,.67-.06,.96,.61,2.02,.73,3.11,.5,.61-.12,.87-.48,.84-1.02-.03-.57-.41-.76-.9-.84-.58-.09-1.17-.16-1.75-.27-1.91-.36-2.91-1.39-3-3.08-.1-1.98,.88-3.43,2.69-3.98,.6-.18,1.22-.27,1.72-.24Z"/><path class="b" d="M7.22,11.1c-.29,.79,.29,1.13,.7,1.53,.22,.21,.27,.42,.21,.7-.35,1.58-.7,3.16-1.03,4.74-.08,.41-.35,.47-.68,.5-1.02,.08-2.04,.17-3.07,.24-.31,.02-.62,.06-1.04,.25,1.23-2.98,2.81-5.58,4.91-7.96Z"/></svg>