<?xml version="1.0" encoding="UTF-8"?><svg id="a" xmlns="http://www.w3.org/2000/svg" viewBox="0 0 61.44 61.44"><defs><style>.b{fill:#fff;}</style></defs><path class="b" d="M61.44,30.72c0,16.97-13.76,30.73-30.73,30.72C13.75,61.44-.01,47.67,0,30.7,.01,13.75,13.77,0,30.74,0c16.96,0,30.71,13.77,30.7,30.72Zm-14.85,15.41h0c1.37,0,2.75,0,4.12,0,.45,0,.62-.13,.71-.57,.05-.26,.13-.52,.2-.78,.11-.42,.18-.84,.05-1.26-.04-.14-.01-.26,.06-.38,.08-.13,.16-.26,.24-.39,.19-.34,.22-.71,.16-1.08-.05-.3-.23-.55-.43-.78-.38-.43-.49-.87-.15-1.4,.13-.19,.27-.38,.38-.58,.23-.42,.42-.86,.62-1.3,.4-.86,.8-1.71,1.19-2.57,.52-1.13,1.04-2.25,1.56-3.38,.41-.88,.81-1.75,1.22-2.63,.37-.8,.74-1.6,1.11-2.4,.05-.1,.08-.22,.1-.33,.04-.19-.12-.37-.39-.39-.31-.02-.52-.18-.7-.4-.02-.03-.05-.06-.07-.08-.41-.38-.88-.67-1.37-.93-.77-.41-1.57-.78-2.3-1.26-.58-.38-1.08-.85-1.42-1.46-.1-.17-.22-.3-.39-.4-.29-.17-.53-.36-.62-.73-.14-.63-.31-1.26-.4-1.91-.05-.35-.2-.5-.55-.5-.62,0-1.25,0-1.87,0-.07,0-.14,0-.2,.02-.6,.1-1,.47-1.3,.97-.24,.4-.34,.83-.18,1.27,.12,.31-.05,.64-.35,.79-.17,.08-.33,.17-.49,.25-.43,.22-.76,.15-1.06-.24-.12-.16-.25-.31-.42-.43-.5-.36-1.14-.23-1.45,.3-.13,.22-.18,.47-.18,.73,0,.42-.04,.84-.23,1.23-.05,.11-.12,.21-.26,.24-.3,.06-.57,.02-.82-.18-.66-.51-1.23-1.11-1.82-1.7-.26-.26-.22-.67,.06-.9,.19-.15,.24-.38,.12-.59-.05-.09-.11-.16-.17-.25-.15-.21-.29-.41-.38-.66-.18-.5-.14-1.01-.07-1.52,.08-.61,.17-1.22,.12-1.84-.05-.58-.22-1.12-.56-1.59-.2-.28-.25-.56-.18-.88,.02-.08,.04-.17,.05-.25,.01-.05,.01-.11,0-.16-.04-.13-.12-.21-.26-.24-.24-.06-.51-.04-.72-.22-.37-.31-.79-.32-1.22-.13-.31,.14-.61,.28-.93,.4-.44,.18-.73,.48-.73,.99,0,.04,0,.08-.03,.1-.2,.19-.32,.43-.54,.6-.34,.27-.75,.36-1.16,.44-.49,.1-.93,.28-1.31,.63-.24,.22-.46,.45-.7,.67-.3,.26-.66,.42-.98,.64-.1,.07-.18,.03-.23-.1-.07-.21-.13-.41-.2-.62-.04-.12-.09-.15-.21-.08-.2,.12-.4,.24-.59,.37-.38,.24-.78,.38-1.23,.25-.2-.06-.38-.16-.55-.28-.31-.23-.56-.52-.86-.77-.21-.17-.42-.35-.72-.31-.45,.06-.65-.13-.6-.58,.02-.17,.07-.35,.06-.52-.03-.61-.32-1.12-.67-1.6-.13-.18-.33-.18-.51-.05-.14,.11-.27,.24-.39,.37-.22,.25-.46,.49-.79,.58-.26,.07-.52,.13-.8,.13-.76,0-1.52-.02-2.28-.05-.66-.03-1.32-.06-1.98-.04-.4,.01-.81,.18-.89,.66-.06,.35,.05,.68,.37,.85,.28,.14,.59,.17,.89,.17,.21,0,.41,.04,.58,.18,.35,.29,.49,.67,.47,1.11-.02,.39-.21,.58-.53,.55-.41-.04-.81-.03-1.22-.02-.34,0-.65,.11-.92,.33-.08,.06-.13,.14-.14,.24-.03,.4-.05,.79-.03,1.19,0,.21,.07,.4,.21,.57,.23,.28,.51,.52,.76,.79,.32,.34,.56,.73,.61,1.21,.01,.11,.06,.2,.12,.29,.2,.27,.3,.56,.3,.9,0,.66-.17,1.29-.29,1.94-.13,.74-.27,1.47-.41,2.21-.17,.95-.35,1.9-.52,2.85-.1,.57-.19,1.14-.32,1.71-.07,.32-.1,.65-.21,.96-.14,.39-.48,.59-.89,.5-.18-.04-.33-.12-.47-.22-.6-.4-1.09-.39-1.65,.05-.23,.18-.48,.29-.76,.33-.5,.08-1,.16-1.5,.23-.56,.08-1.08,.28-1.58,.55-.76,.42-1.45,.96-2.18,1.44-.09,.06-.15,.15-.18,.25-.05,.16-.09,.32-.14,.49-.13,.44-.21,.91-.44,1.32-.09,.15-.16,.31-.24,.46-.19,.38-.13,.76,.02,1.14,.15,.36-.02,.79-.47,.95-.49,.18-.92,.45-1.28,.82-.27,.28-.25,.47,.08,.67,.24,.15,.5,.25,.75,.36,1.36,.62,2.78,1.07,4.22,1.45,1.21,.32,2.44,.54,3.66,.84,.61,.15,1.21,.34,1.78,.6,.74,.33,1.48,.67,2.22,1.01,.67,.31,1.35,.63,2.02,.95,.76,.37,1.52,.74,2.28,1.11,.76,.37,1.53,.74,2.29,1.11,.48,.23,.95,.49,1.45,.68,.47,.18,.93,.13,1.35-.19,.2-.16,.34-.36,.45-.58,.12-.23,.3-.33,.57-.31,.23,.02,.47,.01,.7,0,.18,0,.34,.04,.5,.13,.33,.21,.67,.2,1.01,.02,.29-.15,.58-.31,.87-.46,.21-.11,.42-.09,.59,.06,.06,.05,.09,.15,.18,.12,.08-.03,.07-.13,.1-.21,0-.02,0-.04,.01-.06,.14-.45,.44-.75,.89-.88,.38-.1,.77-.1,1.16-.15,.18-.03,.36-.1,.42-.29,.06-.21,.19-.38,.33-.53,.19-.19,.34-.41,.3-.7-.01-.1,.05-.17,.12-.23,.43-.39,.86-.79,1.38-1.05,.36-.18,.75-.29,1.16-.21,.32,.06,.64,.1,.96,.11,.24,0,.47,.05,.67,.22,.45,.38,.84,.82,1.24,1.25,.27,.29,.52,.61,.84,.86,.09,.07,.18,.11,.27,.04,.29-.24,.62-.24,.96-.15,.35,.09,.7,.13,1.06,.13,1.29,0,2.59,0,3.88,0Z"/><path class="b" d="M30.75,31.05c0-1.66,0-3.33,0-4.99,0-.25,0-.26,.26-.26,2.23,0,4.46,0,6.69,0,.25,0,.26,0,.26,.26,0,.39,0,.78,0,1.17,0,.19-.02,.22-.22,.22-.64,0-1.29,0-1.93,0-1.08,0-2.17,0-3.25,0-.12,0-.15,.04-.15,.15,0,.82,0,1.64,0,2.46,0,.15,.06,.19,.2,.19,1.47,0,2.94,0,4.41,0q.25,0,.25,.25c0,.39,0,.78,0,1.17,0,.21-.01,.22-.23,.22-1.46,0-2.92,0-4.37,0q-.26,0-.26,.25c0,.76,0,1.52,0,2.28q0,.26,.25,.26c1.67,0,3.35,0,5.02,0q.28,0,.28,.28c0,.39,0,.78,0,1.17,0,.14-.05,.2-.2,.2-2.27,0-4.54,0-6.82,0-.18,0-.19-.02-.19-.22,0-1.69,0-3.37,0-5.06Z"/><path class="b" d="M40.73,31.07c0-1.67,0-3.34,0-5.01,0-.25,0-.26,.26-.26,2.23,0,4.46,0,6.69,0,.26,0,.26,0,.26,.27,0,.36,0,.72,0,1.08,0,.3,0,.3-.3,.3-.52,0-1.04,0-1.55,0-1.19,0-2.39,0-3.58,0-.12,0-.15,.04-.15,.14,0,.83,0,1.66,0,2.49,0,.16,.09,.16,.2,.16,1.47,0,2.94,0,4.41,0q.27,0,.27,.27c0,.37,0,.74,0,1.11q0,.27-.28,.27c-1.45,0-2.91,0-4.36,0q-.24,0-.24,.25c0,.78,0,1.55,0,2.33,0,.21,0,.21,.21,.21,1.7,0,3.39,0,5.09,0q.28,0,.28,.27c0,.39,0,.78,0,1.17,0,.15-.04,.21-.2,.21-2.27,0-4.54,0-6.81,0-.17,0-.2-.09-.2-.23,0-1.68,0-3.36,0-5.04Z"/><path class="b" d="M19.33,29.27c0-1.07,0-2.13,0-3.2,0-.23,0-.23,.23-.23,.39,0,.78,0,1.17,0,.21,0,.22,.01,.22,.23,0,1.99,0,3.97,0,5.96,0,.59,.09,1.17,.38,1.7,.27,.49,.65,.83,1.22,.94,.69,.14,1.39,.2,2.07-.02,.74-.23,1.24-.71,1.4-1.51,.09-.46,.13-.92,.13-1.38,0-1.87,0-3.74,0-5.61,0-.29,0-.3,.3-.3,.38,0,.75,0,1.13,0,.2,0,.22,.02,.22,.21,0,2.07,0,4.13,0,6.2,0,.79-.17,1.55-.55,2.26-.49,.91-1.25,1.48-2.25,1.75-1.19,.31-2.36,.25-3.49-.24-1.05-.46-1.65-1.31-1.98-2.38-.14-.44-.2-.9-.2-1.36,0-1,0-2.01,0-3.01h0Z"/><path class="b" d="M23.71,39.09c-.04,.08-.03,.14-.03,.19,0,.35,0,.7,0,1.05,0,.21-.14,.3-.34,.22-.07-.03-.07-.08-.07-.14,0-.64,0-1.28,0-1.92,0-.07,.01-.14,.09-.14,.13,0,.26-.05,.36,.09,.18,.25,.37,.51,.55,.76,.12,.17,.13,.17,.25,0,.18-.24,.36-.49,.53-.73,.08-.11,.27-.16,.39-.11,.06,.03,.07,.08,.07,.13,0,.65,0,1.3,0,1.95,0,.15-.11,.13-.2,.13-.1,0-.19,0-.19-.15,0-.39,0-.78,0-1.17,0-.05,.02-.1-.03-.17-.18,.23-.35,.45-.52,.68-.02,.03-.04,.06-.07,.09-.1,.13-.13,.13-.24,0-.17-.21-.33-.43-.49-.64-.02-.03-.05-.06-.08-.1Z"/><path class="b" d="M39.44,39.15c0,.39,0,.78,0,1.17,0,.21-.13,.29-.33,.22-.07-.02-.08-.08-.08-.14,0-.64,0-1.29,0-1.93,0-.07,.02-.13,.1-.14,.13,0,.26-.05,.36,.1,.26,.39,.53,.78,.79,1.16,.04,.05,.07,.1,.11,.16,.06-.06,.04-.12,.04-.17,0-.34,0-.69,0-1.03,0-.2,.02-.23,.21-.22,.18,0,.2,.02,.2,.23,0,.59,0,1.17,0,1.76,0,.08,.04,.2-.09,.22-.13,.02-.27,.06-.37-.09-.22-.33-.44-.65-.66-.97-.08-.12-.16-.23-.24-.35l-.04,.02Z"/><path class="b" d="M35.88,40.59c-.64,0-1.14-.5-1.13-1.15,0-.64,.51-1.15,1.14-1.15,.63,0,1.18,.52,1.17,1.15-.01,.68-.56,1.19-1.17,1.16Zm.74-1.16c0-.41-.34-.74-.75-.74-.36,0-.7,.36-.7,.75,0,.41,.34,.76,.74,.75,.39,0,.71-.35,.71-.76Z"/><path class="b" d="M32.02,40.55c-.21,0-.42,0-.63,0-.08,0-.21,.05-.24-.06-.04-.13-.06-.27,.04-.39,.23-.27,.47-.53,.7-.8,.14-.15,.27-.31,.41-.47,.02-.02,.05-.06,.04-.08,0-.05-.06-.03-.09-.04-.29,0-.58,0-.87,0-.14,0-.19-.05-.18-.19,0-.13,.03-.21,.19-.21,.43,0,.87,0,1.3,0,.09,0,.22-.05,.25,.07,.04,.13,.06,.27-.05,.39-.27,.31-.55,.61-.82,.92-.1,.11-.2,.22-.3,.33-.02,.03-.07,.05-.04,.09,.02,.04,.07,.03,.1,.03,.31,0,.61,0,.92,0,.14,0,.21,.04,.21,.19,0,.16-.07,.2-.21,.2-.24,0-.48,0-.71,0Z"/><path class="b" d="M28.4,38.33c.16-.03,.23,.04,.28,.17,.24,.61,.49,1.21,.73,1.82,.03,.07,.11,.16-.02,.21-.11,.05-.3,0-.34-.08-.03-.07-.07-.14-.09-.22-.04-.14-.13-.19-.27-.2-.19-.01-.39-.04-.58-.06-.12-.01-.19,.03-.23,.14-.03,.09-.07,.17-.1,.25-.07,.17-.21,.23-.38,.17-.11-.04-.06-.12-.03-.18,.21-.52,.42-1.05,.63-1.57,.03-.08,.07-.17,.1-.25,.05-.15,.12-.26,.3-.2Zm.02,.57h-.04c-.08,.21-.17,.42-.25,.64-.03,.07,.02,.08,.07,.09,.14,.02,.28,.03,.42,.05,.08,.01,.1-.02,.07-.09-.09-.23-.18-.46-.27-.68Z"/><path class="b" d="M20.39,38.33c.16-.04,.24,.04,.29,.18,.23,.6,.48,1.2,.71,1.8,.03,.07,.11,.15,0,.22-.09,.06-.32,0-.36-.08-.04-.09-.08-.18-.12-.28-.03-.07-.08-.11-.15-.12-.23-.03-.46-.05-.69-.07-.1-.01-.16,.02-.19,.12-.03,.08-.08,.16-.1,.25-.04,.17-.15,.22-.32,.2-.14,0-.16-.06-.11-.18,.17-.41,.33-.82,.5-1.23,.08-.21,.17-.41,.25-.62,.05-.14,.12-.24,.29-.19Zm.03,.57h-.04c-.08,.21-.17,.42-.25,.62-.02,.06,0,.09,.07,.1,.15,.02,.29,.04,.44,.06,.05,0,.09,0,.07-.07-.09-.24-.19-.47-.28-.71Z"/><path class="b" d="M43.69,38.33c.17-.05,.24,.04,.29,.18,.24,.6,.48,1.21,.72,1.81,.03,.07,.1,.14,0,.21-.09,.06-.31,0-.35-.07-.04-.09-.08-.17-.11-.26-.04-.1-.1-.14-.2-.15-.2-.02-.41-.04-.61-.07-.13-.02-.21,.02-.25,.15-.03,.11-.08,.21-.12,.31-.03,.07-.07,.1-.14,.11-.27,.03-.31-.02-.21-.27,.23-.59,.48-1.17,.71-1.76,.06-.14,.12-.23,.29-.19Zm.03,.56h-.04c-.08,.21-.17,.42-.25,.64-.02,.05,0,.08,.06,.09,.15,.02,.3,.04,.45,.06,.05,0,.09,0,.07-.07-.09-.24-.19-.47-.28-.71Z"/><path class="b" d="M47.22,40.58c-.24-.02-.47-.09-.67-.23-.07-.04-.13-.1-.05-.17,.08-.07,.09-.27,.27-.15,.16,.11,.33,.16,.52,.14,.06,0,.12-.02,.17-.04,.09-.04,.15-.1,.15-.2,0-.09-.06-.16-.15-.19-.12-.05-.25-.09-.37-.14-.11-.04-.23-.08-.33-.15-.22-.16-.31-.4-.25-.64,.07-.26,.31-.48,.57-.51,.25-.03,.48,.01,.69,.16,.07,.05,.13,.1,.05,.19-.07,.07-.08,.25-.25,.15-.12-.07-.23-.12-.37-.12-.15,0-.28,.1-.3,.23-.02,.15,.07,.22,.19,.27,.15,.06,.3,.11,.45,.16,.29,.11,.46,.33,.46,.58,0,.27-.2,.52-.49,.61-.09,.03-.18,.05-.29,.05Z"/></svg>