<?xml version="1.0" encoding="UTF-8"?><svg id="a" xmlns="http://www.w3.org/2000/svg" viewBox="0 0 60.94 60.95"><defs><style>.b{fill:#fff;}</style></defs><path class="b" d="M31.37,60.95h-1.82c-.21-.1-.44-.1-.67-.09-.62,.02-1.24-.07-1.86-.14-3.94-.45-7.66-1.61-11.15-3.52-2.33-1.27-4.46-2.81-6.37-4.64-2.86-2.73-5.12-5.89-6.75-9.49-1.4-3.09-2.26-6.32-2.58-9.7C.11,32.74,.18,32.1,0,31.48v-2.09c.03-.18,.09-.36,.09-.53,0-1.11,.14-2.21,.32-3.3,.97-5.88,3.45-11.05,7.43-15.48,2.7-3.01,5.89-5.38,9.56-7.12C23,.29,28.87-.56,34.98,.35c7.11,1.05,13.09,4.28,17.98,9.56,1.89,2.04,3.45,4.3,4.7,6.78,2.82,5.6,3.83,11.52,3.01,17.74-1.03,7.79-4.59,14.25-10.55,19.33-4.84,4.12-10.49,6.45-16.84,7.04-.63,.06-1.28-.03-1.89,.16ZM53.84,24.26c0-.65,0-1.09,0-1.53,0-.39-.17-.55-.55-.53-.39,.02-.79-.02-1.18,0-.45,.03-.82-.1-1.18-.37-.67-.49-1.36-.97-2.06-1.42-.75-.48-1.41-1.09-2.32-1.31-2.9-.71-5.75-1.61-8.54-2.67-.42-.16-.58-.36-.47-.81,.14-.6,.11-.63-.49-.77-.39-.09-.74-.2-.96-.59-.8-1.41-1.64-2.8-2.46-4.19-.24-.4-.32-.42-.62-.08-.69,.78-1.38,1.57-2.05,2.37-.16,.19-.33,.3-.58,.31-.68,.03-1.36,.11-2.04,.09-.54-.01-1.09-.01-1.63,.07-.26,.04-.36,.13-.24,.38,.14,.31-.02,.45-.29,.53-.23,.07-.47,.13-.7,.2-.26,.09-.47,.01-.65-.18-.28-.3-.46-.62-.44-1.05,.02-.67,0-1.33,0-2,0-.32-.08-.6-.3-.83-.27-.3-.55-.6-.81-.92-.24-.3-.47-.36-.81-.13-1.13,.76-2.32,1.36-3.75,1.24-.19-.02-.39,.04-.59,.04-.36,0-.52,.18-.56,.52-.05,.42-.12,.84-.17,1.26-.04,.29-.02,.57,.14,.83,.52,.87,.5,.85-.44,1.26-.45,.2-.8,.17-1.14-.18-.36-.37-.8-.57-1.33-.6-.77-.05-1.54-.13-2.31-.2-1.18-.11-1.13-.1-1.46,1.03-.27,.9-.21,1.68,.41,2.4,.18,.21,.26,.46,.19,.76-.24,1.05-.48,2.1-.7,3.15-.08,.39-.3,.55-.69,.59-.74,.06-1.47,.17-2.21,.24-.33,.03-.56,.18-.74,.45-.59,.86-1.2,1.71-1.81,2.56-.19,.26-.22,.52-.09,.81,.19,.45,.36,.9,.54,1.35,.64,1.62,.27,1.3,2.01,1.66,.63,.13,1.27,.38,1.92,.28,.45-.07,.63,.06,.61,.51-.02,.4,.2,.52,.58,.49,.44-.04,.88-.07,1.32-.05,1.11,.06,2.17-.08,3.16-.64,.29-.16,.61-.26,.92-.4,.28-.13,.43-.04,.49,.25,.11,.49,.27,.97,.34,1.46,.08,.51,.34,.79,.8,.99,1.31,.59,2.59,1.25,3.92,1.81,.83,.35,1.42,.75,1.21,1.78-.06,.28,.11,.45,.42,.47,.42,.03,.84,.08,1.27,.09,.91,.04,.94,.06,.94,.97,0,1.92,0,3.85,0,5.77,0,.63,.04,.67,.65,.74,.54,.06,1.08,.12,1.63,.15,.33,.02,.53,.16,.68,.44,.33,.61,.66,1.23,1.04,1.81,.32,.49,.43,.95,.16,1.49-.16,.32-.04,.51,.29,.62,.21,.07,.45,.12,.57,.34,.2,.35,.04,1.46-.25,1.76-.79,.8-1.58,1.59-2.38,2.38-.24,.23-.29,.43-.04,.69,.36,.39,.69,.8,1.04,1.2,.68,.76,1.5,1.46,1.26,2.66-.02,.12,.04,.24,.14,.32,.36,.31,1.39,.28,1.72-.05,1.54-1.54,3.07-3.1,4.63-4.62,.4-.39,.56-.81,.49-1.34-.14-1.03-.04-2.06-.08-3.09-.01-.38,.11-.6,.48-.77,2.63-1.17,5.25-2.37,7.87-3.55,.36-.16,.62-.39,.81-.75,.69-1.3,1.41-2.58,2.12-3.86,.1-.18,.17-.36,.17-.56,0-1.74,0-3.49-.03-5.23,0-.39,.1-.55,.47-.52,.43,.04,.69-.17,.92-.52,.95-1.48,1.9-2.96,2.91-4.4,.66-.94,1.17-1.88,.91-2.85Z"/><path class="b" d="M31.73,25.53c-.13,.21-.08,.41-.08,.6-.03,1.5,.05,3,.08,4.49,.01,.62-.05,.66-.68,.67-.35,0-.7,0-1.05,0-.56,0-.62-.06-.62-.64,0-2.11,0-4.21,0-6.32,0-.71,.01-1.42-.01-2.14-.01-.35,.12-.46,.45-.45,.53,.01,1.06,.01,1.59,0,.37-.01,.58,.16,.76,.47,.92,1.62,1.85,3.23,2.78,4.85,.07,.12,.1,.29,.28,.34,.14-.16,.08-.35,.08-.52,0-1.5,0-3,0-4.5,0-.56,.06-.61,.62-.64,.32-.01,.63-.06,.95-.07,.62-.02,.69,.05,.69,.65,0,.48,0,.97,0,1.45,.03,2.27,.06,4.54,.08,6.81,0,.66-.04,.69-.69,.7-.42,0-.85-.02-1.27,0-.42,.02-.67-.15-.87-.51-.91-1.64-1.84-3.27-2.77-4.9-.07-.13-.11-.29-.31-.35Z"/><path class="b" d="M42.58,31.21c-1.08,0-2.15,0-3.23,0-.53,0-.6-.07-.61-.61-.06-2.74-.11-5.48-.09-8.22,0-.66,.03-.7,.69-.7,2.11,0,4.21,0,6.32,0,.54,0,.62,.07,.61,.6,0,1.46,.16,1.32-1.26,1.31-1.14-.01-2.27,.09-3.41,.09-.34,0-.49,.14-.51,.49-.07,1.22,.05,1.36,1.26,1.23,1-.11,2-.03,3-.06,.32,0,.47,.14,.47,.46,0,1.66,.16,1.41-1.33,1.43-.89,.01-1.79,0-2.68,0-.67,0-.76,.11-.67,.79,0,.06,.02,.12,.02,.18-.02,1.07,.13,.94,1.07,.94,1.21,0,2.42,0,3.64,0,.42,0,.62,.14,.6,.58-.02,.33-.01,.67,0,1,.01,.37-.16,.51-.52,.51-1.12,0-2.24,0-3.36,0h0Z"/><path class="b" d="M20.01,24.99c0-.85,.01-1.7,0-2.54,0-.42,.14-.62,.58-.6,.44,.02,.88,.02,1.32,0,.42-.02,.56,.17,.56,.57,0,1.58,0,3.15,0,4.73,0,.4,.04,.79,.13,1.17,.17,.73,.69,1.11,1.54,1.15,.84,.04,1.41-.32,1.64-1.02,.12-.36,.16-.74,.16-1.12,0-1.59-.01-3.18-.08-4.77,0-.14,0-.27,0-.41,0-.23,.12-.37,.36-.38,.56,0,1.12,0,1.68,0,.23,0,.38,.12,.38,.36,.06,2,.24,4,.03,5.99-.25,2.36-1.39,3.34-3.77,3.45-.59,.03-1.18-.02-1.76-.13-1.37-.25-2.29-1.17-2.58-2.55-.07-.35-.14-.72-.15-1.08-.02-.94,0-1.88,0-2.82h-.03Z"/></svg>